<svg viewBox="0 0 25 23"  xmlns="http://www.w3.org/2000/svg">
    <path d="M2.90527 0.782227L1.78223 1.90527L6.64062 6.73926L15.3076 15.4062L16.7969 16.9199L22.0947 22.2178L23.2178 21.0947L18.3594 16.2363C21.6675 14.5975 23.8861 12.1653 24.0234 12.0127L24.4873 11.5L24.0234 10.9873C23.8129 10.7523 18.8171 5.25 12.5 5.25C10.9711 5.25 9.52759 5.58569 8.20312 6.08008L2.90527 0.782227ZM12.5 6.8125C14.1815 6.8125 15.7715 7.28552 17.1875 7.93555C17.691 8.77783 17.9688 9.72998 17.9688 10.7188C17.9688 12.1378 17.4194 13.4348 16.5283 14.4053L14.3066 12.1836C14.6332 11.7838 14.8438 11.2772 14.8438 10.7188C14.8438 9.4248 13.7939 8.375 12.5 8.375C11.9415 8.375 11.4349 8.58557 11.0352 8.91211L9.44824 7.3252C10.4187 7.02612 11.4349 6.8125 12.5 6.8125ZM5.22461 7.52051C2.71912 9.06165 1.09253 10.8561 0.976562 10.9873L0.512695 11.5L0.976562 12.0127C1.17798 12.2385 5.80444 17.3014 11.7676 17.7012C12.0087 17.7256 12.2528 17.75 12.5 17.75C12.7472 17.75 12.9913 17.7256 13.2324 17.7012C13.8763 17.6584 14.505 17.573 15.1123 17.4326L13.7207 16.041C13.324 16.1326 12.9211 16.1875 12.5 16.1875C9.48486 16.1875 7.03125 13.7339 7.03125 10.7188C7.03125 10.3037 7.08618 9.89783 7.17773 9.49805L5.22461 7.52051ZM5.66406 9.10742C5.53894 9.63538 5.46875 10.1725 5.46875 10.7188C5.46875 12.0768 5.85022 13.328 6.51855 14.4053C4.73023 13.3799 3.36304 12.1775 2.66113 11.5C3.24402 10.9354 4.29382 9.99854 5.66406 9.10742ZM19.3359 9.10742C20.7062 9.99854 21.7529 10.9354 22.3389 11.5C21.637 12.1775 20.2484 13.4043 18.457 14.4297C19.1284 13.3524 19.5312 12.0768 19.5312 10.7188C19.5312 10.1725 19.4611 9.63232 19.3359 9.10742Z" fill="currentColor"/>
</svg>
