<svg width="19" height="20" viewBox="0 0 19 20" fill="none" xmlns="http://www.w3.org/2000/svg">
<path d="M9.5 0.625C4.33032 0.625 0.125 4.83032 0.125 10C0.125 15.1697 4.33032 19.375 9.5 19.375C12.6647 19.375 15.4692 17.8033 17.166 15.3955L15.8965 14.4922C14.4835 16.5002 12.1489 17.8125 9.5 17.8125C5.17566 17.8125 1.6875 14.3243 1.6875 10C1.6875 5.67566 5.17566 2.1875 9.5 2.1875C12.1489 2.1875 14.4805 3.49976 15.8965 5.50781L17.166 4.60449C15.4692 2.19666 12.6647 0.625 9.5 0.625ZM15.2373 6.31348L14.1143 7.43652L15.8965 9.21875H6.375V10.7812H15.8965L14.1143 12.5635L15.2373 13.6865L18.3623 10.5615L18.8994 10L18.3623 9.43848L15.2373 6.31348Z" fill="black"/>
</svg>
