<svg width="20" height="20" viewBox="0 0 20 20" fill="none" xmlns="http://www.w3.org/2000/svg">
<path d="M16.6768 0.600586C15.8589 0.600586 15.041 0.917969 14.4062 1.55273L2.05273 13.9062L2.00391 14.1504L1.14941 18.4473L0.905273 19.5947L2.05273 19.3506L6.34961 18.4961L6.59375 18.4473L18.9473 6.09375C20.2168 4.82422 20.2168 2.82227 18.9473 1.55273C18.3125 0.917969 17.4946 0.600586 16.6768 0.600586ZM16.6768 2.08984C17.0704 2.08984 17.4672 2.2699 17.8486 2.65137C18.6085 3.41125 18.6085 4.23523 17.8486 4.99512L17.2871 5.53223L14.9678 3.21289L15.5049 2.65137C15.8864 2.2699 16.2831 2.08984 16.6768 2.08984ZM13.8691 4.31152L16.1885 6.63086L6.74023 16.0791C6.22754 15.0781 5.42188 14.2725 4.4209 13.7598L13.8691 4.31152ZM3.41992 15.0293C4.35681 15.4077 5.09229 16.1432 5.4707 17.0801L2.90723 17.5928L3.41992 15.0293Z" fill="black"/>
</svg>
