<svg width="23" height="18" viewBox="0 0 23 18" fill="none" xmlns="http://www.w3.org/2000/svg">
<path d="M0.5625 0.40625V17.5938H22.4375V0.40625H0.5625ZM2.125 1.96875H20.875V12.833L16.749 8.68262L16.1875 8.12109L12.6475 11.6611L8.15527 7.12012L7.59375 6.55859L2.125 12.0273V1.96875ZM17.75 3.53125C16.8864 3.53125 16.1875 4.2301 16.1875 5.09375C16.1875 5.9574 16.8864 6.65625 17.75 6.65625C18.6136 6.65625 19.3125 5.9574 19.3125 5.09375C19.3125 4.2301 18.6136 3.53125 17.75 3.53125ZM7.59375 8.78027L14.7715 16.0312H2.125V14.249L7.59375 8.78027ZM16.1875 10.3428L20.875 15.0303V16.0312H16.9932L13.7461 12.7598L16.1875 10.3428Z" fill="black"/>
</svg>
