<svg width="17" height="19" viewBox="0 0 17 19" fill="none" xmlns="http://www.w3.org/2000/svg">
<path d="M8.5 0.90625C5.48792 0.90625 3.03125 3.36291 3.03125 6.375C3.03125 8.25793 3.99255 9.9303 5.44824 10.916C2.66199 12.1123 0.6875 14.8772 0.6875 18.0938H2.25C2.25 14.6331 5.03931 11.8438 8.5 11.8438C11.9607 11.8438 14.75 14.6331 14.75 18.0938H16.3125C16.3125 14.8772 14.338 12.1123 11.5518 10.916C13.0074 9.9303 13.9688 8.25793 13.9688 6.375C13.9688 3.36291 11.5121 0.90625 8.5 0.90625ZM8.5 2.46875C10.6667 2.46875 12.4062 4.20825 12.4062 6.375C12.4062 8.54175 10.6667 10.2812 8.5 10.2812C6.33325 10.2812 4.59375 8.54175 4.59375 6.375C4.59375 4.20825 6.33325 2.46875 8.5 2.46875Z" fill="black"/>
</svg>
